<mxfile host="app.diagrams.net" agent="Mozilla/5.0 (Windows NT 10.0; Win64; x64) AppleWebKit/537.36 (KHTML, like Gecko) Chrome/141.0.0.0 Safari/537.36 Edg/141.0.0.0" version="28.2.7">
  <diagram name="PÃ¡gina-1" id="m7pZAA4suUvpJCAfA-c3">
    <mxGraphModel dx="4158" dy="2329" grid="1" gridSize="10" guides="1" tooltips="1" connect="1" arrows="1" fold="1" page="1" pageScale="1" pageWidth="2200" pageHeight="1400" math="0" shadow="0">
      <root>
        <mxCell id="0" />
        <mxCell id="1" parent="0" />
        <mxCell id="patient" value="patients" style="rounded=0;whiteSpace=wrap;html=1;fontStyle=1;fontSize=14;" parent="1" vertex="1">
          <mxGeometry x="200" y="400" width="140" height="50" as="geometry" />
        </mxCell>
        <mxCell id="p1" value="&lt;u&gt;patient_id&lt;/u&gt;" style="ellipse;whiteSpace=wrap;html=1;" parent="1" vertex="1">
          <mxGeometry x="160" y="295" width="100" height="50" as="geometry" />
        </mxCell>
        <mxCell id="p2" value="first_name" style="ellipse;whiteSpace=wrap;html=1;" parent="1" vertex="1">
          <mxGeometry x="370" y="310" width="110" height="50" as="geometry" />
        </mxCell>
        <mxCell id="p3" value="second_name" style="ellipse;whiteSpace=wrap;html=1;" parent="1" vertex="1">
          <mxGeometry x="345" y="370" width="120" height="50" as="geometry" />
        </mxCell>
        <mxCell id="p4" value="first_surname" style="ellipse;whiteSpace=wrap;html=1;" parent="1" vertex="1">
          <mxGeometry x="30" y="295" width="110" height="50" as="geometry" />
        </mxCell>
        <mxCell id="p5" value="second_surname" style="ellipse;whiteSpace=wrap;html=1;" parent="1" vertex="1">
          <mxGeometry y="350" width="120" height="50" as="geometry" />
        </mxCell>
        <mxCell id="p6" value="birth_date" style="ellipse;whiteSpace=wrap;html=1;" parent="1" vertex="1">
          <mxGeometry x="290" y="275" width="100" height="50" as="geometry" />
        </mxCell>
        <mxCell id="p7" value="sex" style="ellipse;whiteSpace=wrap;html=1;" parent="1" vertex="1">
          <mxGeometry x="345" y="470" width="80" height="50" as="geometry" />
        </mxCell>
        <mxCell id="p9" value="active" style="ellipse;whiteSpace=wrap;html=1;" parent="1" vertex="1">
          <mxGeometry x="280" y="510" width="80" height="50" as="geometry" />
        </mxCell>
        <mxCell id="doctor" value="doctors" style="rounded=0;whiteSpace=wrap;html=1;fontStyle=1;fontSize=14;" parent="1" vertex="1">
          <mxGeometry x="1200" y="400" width="140" height="50" as="geometry" />
        </mxCell>
        <mxCell id="d1" value="&lt;u&gt;doctor_id&lt;/u&gt;" style="ellipse;whiteSpace=wrap;html=1;" parent="1" vertex="1">
          <mxGeometry x="1110" y="295" width="100" height="50" as="geometry" />
        </mxCell>
        <mxCell id="d2" value="internal_code" style="ellipse;whiteSpace=wrap;html=1;" parent="1" vertex="1">
          <mxGeometry x="1220" y="280" width="120" height="50" as="geometry" />
        </mxCell>
        <mxCell id="d3" value="license_number" style="ellipse;whiteSpace=wrap;html=1;" parent="1" vertex="1">
          <mxGeometry x="1330" y="320" width="130" height="50" as="geometry" />
        </mxCell>
        <mxCell id="d4" value="first_name" style="ellipse;whiteSpace=wrap;html=1;" parent="1" vertex="1">
          <mxGeometry x="1060" y="360" width="100" height="50" as="geometry" />
        </mxCell>
        <mxCell id="d5" value="last_name" style="ellipse;whiteSpace=wrap;html=1;" parent="1" vertex="1">
          <mxGeometry x="1060" y="440" width="100" height="50" as="geometry" />
        </mxCell>
        <mxCell id="d6" value="professional_email" style="ellipse;whiteSpace=wrap;html=1;" parent="1" vertex="1">
          <mxGeometry x="1320" y="470" width="140" height="50" as="geometry" />
        </mxCell>
        <mxCell id="d7" value="hospital_admission_date" style="ellipse;whiteSpace=wrap;html=1;" parent="1" vertex="1">
          <mxGeometry x="1150" y="470" width="160" height="50" as="geometry" />
        </mxCell>
        <mxCell id="appointment" value="appointments" style="rounded=0;whiteSpace=wrap;html=1;fontStyle=1;fontSize=14;" parent="1" vertex="1">
          <mxGeometry x="700" y="400" width="140" height="50" as="geometry" />
        </mxCell>
        <mxCell id="a1" value="&lt;u&gt;appointment_id&lt;/u&gt;" style="ellipse;whiteSpace=wrap;html=1;" parent="1" vertex="1">
          <mxGeometry x="640" y="255" width="120" height="50" as="geometry" />
        </mxCell>
        <mxCell id="a2" value="date" style="ellipse;whiteSpace=wrap;html=1;" parent="1" vertex="1">
          <mxGeometry x="780" y="260" width="80" height="50" as="geometry" />
        </mxCell>
        <mxCell id="a3" value="start_time" style="ellipse;whiteSpace=wrap;html=1;" parent="1" vertex="1">
          <mxGeometry x="870" y="300" width="90" height="50" as="geometry" />
        </mxCell>
        <mxCell id="a4" value="end_time" style="ellipse;whiteSpace=wrap;html=1;" parent="1" vertex="1">
          <mxGeometry x="610" y="310" width="90" height="50" as="geometry" />
        </mxCell>
        <mxCell id="a5" value="visit_type" style="ellipse;whiteSpace=wrap;html=1;" parent="1" vertex="1">
          <mxGeometry x="570" y="360" width="90" height="50" as="geometry" />
        </mxCell>
        <mxCell id="a6" value="status" style="ellipse;whiteSpace=wrap;html=1;" parent="1" vertex="1">
          <mxGeometry x="790" y="480" width="80" height="50" as="geometry" />
        </mxCell>
        <mxCell id="a7" value="reason" style="ellipse;whiteSpace=wrap;html=1;" parent="1" vertex="1">
          <mxGeometry x="850" y="430" width="80" height="50" as="geometry" />
        </mxCell>
        <mxCell id="medical_record" value="clinical_histories" style="rounded=0;whiteSpace=wrap;html=1;fontStyle=1;fontSize=14;" parent="1" vertex="1">
          <mxGeometry x="195" y="110" width="150" height="50" as="geometry" />
        </mxCell>
        <mxCell id="mr1" value="&lt;u&gt;history_id&lt;/u&gt;" style="ellipse;whiteSpace=wrap;html=1;" parent="1" vertex="1">
          <mxGeometry x="430" y="60" width="100" height="50" as="geometry" />
        </mxCell>
        <mxCell id="mr2" value="date_time_record" style="ellipse;whiteSpace=wrap;html=1;" parent="1" vertex="1">
          <mxGeometry x="5" y="50" width="130" height="50" as="geometry" />
        </mxCell>
        <mxCell id="mr3" value="record_type" style="ellipse;whiteSpace=wrap;html=1;" parent="1" vertex="1">
          <mxGeometry x="100" y="-20" width="100" height="50" as="geometry" />
        </mxCell>
        <mxCell id="mr4" value="text_summary" style="ellipse;whiteSpace=wrap;html=1;" parent="1" vertex="1">
          <mxGeometry x="345" y="180" width="120" height="50" as="geometry" />
        </mxCell>
        <mxCell id="mr6" value="structured_summary" style="ellipse;whiteSpace=wrap;html=1;" parent="1" vertex="1">
          <mxGeometry x="330" y="-10" width="130" height="50" as="geometry" />
        </mxCell>
        <mxCell id="diagnosis" value="diagnoses" style="rounded=0;whiteSpace=wrap;html=1;fontStyle=1;fontSize=14;" parent="1" vertex="1">
          <mxGeometry x="200" y="-180" width="140" height="50" as="geometry" />
        </mxCell>
        <mxCell id="di1" value="&lt;u&gt;diagnosis_id&lt;/u&gt;" style="ellipse;whiteSpace=wrap;html=1;" parent="1" vertex="1">
          <mxGeometry x="50" y="-180" width="120" height="50" as="geometry" />
        </mxCell>
        <mxCell id="di2" value="icd_code" style="ellipse;whiteSpace=wrap;html=1;" parent="1" vertex="1">
          <mxGeometry x="220" y="-260" width="100" height="50" as="geometry" />
        </mxCell>
        <mxCell id="di3" value="description" style="ellipse;whiteSpace=wrap;html=1;" parent="1" vertex="1">
          <mxGeometry x="370" y="-180" width="100" height="50" as="geometry" />
        </mxCell>
        <mxCell id="medication" value="medications" style="rounded=0;whiteSpace=wrap;html=1;fontStyle=1;fontSize=14;" parent="1" vertex="1">
          <mxGeometry x="-370" y="110" width="140" height="50" as="geometry" />
        </mxCell>
        <mxCell id="med1" value="&lt;u&gt;medication_id&lt;/u&gt;" style="ellipse;whiteSpace=wrap;html=1;" parent="1" vertex="1">
          <mxGeometry x="-280" y="40" width="120" height="50" as="geometry" />
        </mxCell>
        <mxCell id="med2" value="atc_code" style="ellipse;whiteSpace=wrap;html=1;" parent="1" vertex="1">
          <mxGeometry x="-410" y="40" width="100" height="50" as="geometry" />
        </mxCell>
        <mxCell id="med3" value="trade_name" style="ellipse;whiteSpace=wrap;html=1;" parent="1" vertex="1">
          <mxGeometry x="-450" y="180" width="110" height="50" as="geometry" />
        </mxCell>
        <mxCell id="med4" value="active_ingredient" style="ellipse;whiteSpace=wrap;html=1;" parent="1" vertex="1">
          <mxGeometry x="-300" y="180" width="140" height="50" as="geometry" />
        </mxCell>
        <mxCell id="policy" value="policies" style="rounded=0;whiteSpace=wrap;html=1;fontStyle=1;fontSize=14;" parent="1" vertex="1">
          <mxGeometry x="200" y="700" width="140" height="50" as="geometry" />
        </mxCell>
        <mxCell id="po1" value="&lt;u&gt;policy_id&lt;/u&gt;" style="ellipse;whiteSpace=wrap;html=1;" parent="1" vertex="1">
          <mxGeometry x="100" y="640" width="90" height="50" as="geometry" />
        </mxCell>
        <mxCell id="po2" value="policy_number" style="ellipse;whiteSpace=wrap;html=1;" parent="1" vertex="1">
          <mxGeometry x="75" y="700" width="110" height="50" as="geometry" />
        </mxCell>
        <mxCell id="po3" value="start_date" style="ellipse;whiteSpace=wrap;html=1;" parent="1" vertex="1">
          <mxGeometry x="110" y="760" width="100" height="50" as="geometry" />
        </mxCell>
        <mxCell id="po4" value="end_date" style="ellipse;whiteSpace=wrap;html=1;" parent="1" vertex="1">
          <mxGeometry x="335" y="640" width="90" height="50" as="geometry" />
        </mxCell>
        <mxCell id="po5" value="status" style="ellipse;whiteSpace=wrap;html=1;" parent="1" vertex="1">
          <mxGeometry x="360" y="700" width="80" height="50" as="geometry" />
        </mxCell>
        <mxCell id="po6" value="coverage_summary" style="ellipse;whiteSpace=wrap;html=1;" parent="1" vertex="1">
          <mxGeometry x="310" y="760" width="140" height="50" as="geometry" />
        </mxCell>
        <mxCell id="insurance" value="insurers" style="rounded=0;whiteSpace=wrap;html=1;fontStyle=1;fontSize=14;" parent="1" vertex="1">
          <mxGeometry x="180" y="980" width="180" height="50" as="geometry" />
        </mxCell>
        <mxCell id="ins1" value="&lt;u&gt;insurer_id&lt;/u&gt;" style="ellipse;whiteSpace=wrap;html=1;" parent="1" vertex="1">
          <mxGeometry x="60" y="980" width="110" height="50" as="geometry" />
        </mxCell>
        <mxCell id="ins2" value="name" style="ellipse;whiteSpace=wrap;html=1;" parent="1" vertex="1">
          <mxGeometry x="225" y="1060" width="90" height="50" as="geometry" />
        </mxCell>
        <mxCell id="ins3" value="contact_info" style="ellipse;whiteSpace=wrap;html=1;" parent="1" vertex="1">
          <mxGeometry x="370" y="980" width="110" height="50" as="geometry" />
        </mxCell>
        <mxCell id="audit" value="audits" style="rounded=0;whiteSpace=wrap;html=1;fontStyle=1;fontSize=14;" parent="1" vertex="1">
          <mxGeometry x="1230" y="770" width="140" height="50" as="geometry" />
        </mxCell>
        <mxCell id="au1" value="&lt;u&gt;audit_id&lt;/u&gt;" style="ellipse;whiteSpace=wrap;html=1;" parent="1" vertex="1">
          <mxGeometry x="1110" y="690" width="100" height="50" as="geometry" />
        </mxCell>
        <mxCell id="au2" value="user_id" style="ellipse;whiteSpace=wrap;html=1;" parent="1" vertex="1">
          <mxGeometry x="1110" y="770" width="90" height="50" as="geometry" />
        </mxCell>
        <mxCell id="au3" value="action" style="ellipse;whiteSpace=wrap;html=1;" parent="1" vertex="1">
          <mxGeometry x="1140" y="830" width="80" height="50" as="geometry" />
        </mxCell>
        <mxCell id="au4" value="timestamp" style="ellipse;whiteSpace=wrap;html=1;" parent="1" vertex="1">
          <mxGeometry x="1370" y="700" width="100" height="50" as="geometry" />
        </mxCell>
        <mxCell id="au5" value="entity" style="ellipse;whiteSpace=wrap;html=1;" parent="1" vertex="1">
          <mxGeometry x="1400" y="770" width="80" height="50" as="geometry" />
        </mxCell>
        <mxCell id="au6" value="entity_id" style="ellipse;whiteSpace=wrap;html=1;" parent="1" vertex="1">
          <mxGeometry x="1395" y="830" width="90" height="50" as="geometry" />
        </mxCell>
        <mxCell id="rel_schedules" value="schedules" style="rhombus;whiteSpace=wrap;html=1;fontSize=12;" parent="1" vertex="1">
          <mxGeometry x="450" y="390" width="110" height="70" as="geometry" />
        </mxCell>
        <mxCell id="rel_attends" value="attends" style="rhombus;whiteSpace=wrap;html=1;fontSize=12;" parent="1" vertex="1">
          <mxGeometry x="950" y="390" width="110" height="70" as="geometry" />
        </mxCell>
        <mxCell id="rel_owns" value="owns" style="rhombus;whiteSpace=wrap;html=1;fontSize=12;" parent="1" vertex="1">
          <mxGeometry x="220" y="230" width="100" height="70" as="geometry" />
        </mxCell>
        <mxCell id="rel_generates" value="generates" style="rhombus;whiteSpace=wrap;html=1;fontSize=12;" parent="1" vertex="1">
          <mxGeometry x="715" y="100" width="110" height="70" as="geometry" />
        </mxCell>
        <mxCell id="rel_includes" value="includes" style="rhombus;whiteSpace=wrap;html=1;fontSize=12;" parent="1" vertex="1">
          <mxGeometry x="220" y="-40" width="100" height="70" as="geometry" />
        </mxCell>
        <mxCell id="rel_prescribes" value="prescribes" style="rhombus;whiteSpace=wrap;html=1;fontSize=12;" parent="1" vertex="1">
          <mxGeometry x="-95" y="100" width="110" height="70" as="geometry" />
        </mxCell>
        <mxCell id="rel_has_policy" value="has" style="rhombus;whiteSpace=wrap;html=1;fontSize=12;" parent="1" vertex="1">
          <mxGeometry x="220" y="550" width="100" height="70" as="geometry" />
        </mxCell>
        <mxCell id="rel_issues" value="issues" style="rhombus;whiteSpace=wrap;html=1;fontSize=12;" parent="1" vertex="1">
          <mxGeometry x="220" y="840" width="100" height="70" as="geometry" />
        </mxCell>
        <mxCell id="link_p1" style="endArrow=none;html=1;" parent="1" source="p1" target="patient" edge="1">
          <mxGeometry relative="1" as="geometry" />
        </mxCell>
        <mxCell id="link_p2" style="endArrow=none;html=1;" parent="1" source="p2" target="patient" edge="1">
          <mxGeometry relative="1" as="geometry" />
        </mxCell>
        <mxCell id="link_p3" style="endArrow=none;html=1;" parent="1" source="p3" target="patient" edge="1">
          <mxGeometry relative="1" as="geometry" />
        </mxCell>
        <mxCell id="link_p4" style="endArrow=none;html=1;" parent="1" source="p4" target="patient" edge="1">
          <mxGeometry relative="1" as="geometry" />
        </mxCell>
        <mxCell id="link_p5" style="endArrow=none;html=1;" parent="1" source="p5" target="patient" edge="1">
          <mxGeometry relative="1" as="geometry" />
        </mxCell>
        <mxCell id="link_p6" style="endArrow=none;html=1;" parent="1" source="p6" target="patient" edge="1">
          <mxGeometry relative="1" as="geometry" />
        </mxCell>
        <mxCell id="link_p7" style="endArrow=none;html=1;" parent="1" source="p7" target="patient" edge="1">
          <mxGeometry relative="1" as="geometry" />
        </mxCell>
        <mxCell id="link_p8" style="endArrow=none;html=1;exitX=0.5;exitY=0;exitDx=0;exitDy=0;" parent="1" source="ce4WBo3d2V8kuTHK4Dnx-42" target="patient" edge="1">
          <mxGeometry relative="1" as="geometry" />
        </mxCell>
        <mxCell id="link_p9" style="endArrow=none;html=1;" parent="1" source="p9" target="patient" edge="1">
          <mxGeometry relative="1" as="geometry" />
        </mxCell>
        <mxCell id="link_d1" style="endArrow=none;html=1;" parent="1" source="d1" target="doctor" edge="1">
          <mxGeometry relative="1" as="geometry" />
        </mxCell>
        <mxCell id="link_d2" style="endArrow=none;html=1;" parent="1" source="d2" target="doctor" edge="1">
          <mxGeometry relative="1" as="geometry" />
        </mxCell>
        <mxCell id="link_d3" style="endArrow=none;html=1;" parent="1" source="d3" target="doctor" edge="1">
          <mxGeometry relative="1" as="geometry" />
        </mxCell>
        <mxCell id="link_d4" style="endArrow=none;html=1;" parent="1" source="d4" target="doctor" edge="1">
          <mxGeometry relative="1" as="geometry" />
        </mxCell>
        <mxCell id="link_d5" style="endArrow=none;html=1;" parent="1" source="d5" target="doctor" edge="1">
          <mxGeometry relative="1" as="geometry" />
        </mxCell>
        <mxCell id="link_d6" style="endArrow=none;html=1;" parent="1" source="d6" target="doctor" edge="1">
          <mxGeometry relative="1" as="geometry" />
        </mxCell>
        <mxCell id="link_d7" style="endArrow=none;html=1;" parent="1" source="d7" target="doctor" edge="1">
          <mxGeometry relative="1" as="geometry" />
        </mxCell>
        <mxCell id="link_a1" style="endArrow=none;html=1;" parent="1" source="a1" target="appointment" edge="1">
          <mxGeometry relative="1" as="geometry" />
        </mxCell>
        <mxCell id="link_a2" style="endArrow=none;html=1;" parent="1" source="a2" target="appointment" edge="1">
          <mxGeometry relative="1" as="geometry" />
        </mxCell>
        <mxCell id="link_a3" style="endArrow=none;html=1;" parent="1" source="a3" target="appointment" edge="1">
          <mxGeometry relative="1" as="geometry" />
        </mxCell>
        <mxCell id="link_a4" style="endArrow=none;html=1;" parent="1" source="a4" target="appointment" edge="1">
          <mxGeometry relative="1" as="geometry" />
        </mxCell>
        <mxCell id="link_a5" style="endArrow=none;html=1;" parent="1" source="a5" target="appointment" edge="1">
          <mxGeometry relative="1" as="geometry" />
        </mxCell>
        <mxCell id="link_a6" style="endArrow=none;html=1;" parent="1" source="a6" target="appointment" edge="1">
          <mxGeometry relative="1" as="geometry" />
        </mxCell>
        <mxCell id="link_a7" style="endArrow=none;html=1;" parent="1" source="a7" target="appointment" edge="1">
          <mxGeometry relative="1" as="geometry" />
        </mxCell>
        <mxCell id="link_mr1" style="endArrow=none;html=1;" parent="1" source="mr1" target="medical_record" edge="1">
          <mxGeometry relative="1" as="geometry" />
        </mxCell>
        <mxCell id="link_mr2" style="endArrow=none;html=1;" parent="1" source="mr2" target="medical_record" edge="1">
          <mxGeometry relative="1" as="geometry" />
        </mxCell>
        <mxCell id="link_mr3" style="endArrow=none;html=1;" parent="1" source="mr3" target="medical_record" edge="1">
          <mxGeometry relative="1" as="geometry" />
        </mxCell>
        <mxCell id="link_mr4" style="endArrow=none;html=1;" parent="1" source="mr4" target="medical_record" edge="1">
          <mxGeometry relative="1" as="geometry" />
        </mxCell>
        <mxCell id="link_mr6" style="endArrow=none;html=1;" parent="1" source="mr6" target="medical_record" edge="1">
          <mxGeometry relative="1" as="geometry" />
        </mxCell>
        <mxCell id="link_di1" style="endArrow=none;html=1;" parent="1" source="di1" target="diagnosis" edge="1">
          <mxGeometry relative="1" as="geometry" />
        </mxCell>
        <mxCell id="link_di2" style="endArrow=none;html=1;" parent="1" source="di2" target="diagnosis" edge="1">
          <mxGeometry relative="1" as="geometry" />
        </mxCell>
        <mxCell id="link_di3" style="endArrow=none;html=1;" parent="1" source="di3" target="diagnosis" edge="1">
          <mxGeometry relative="1" as="geometry" />
        </mxCell>
        <mxCell id="link_med1" style="endArrow=none;html=1;" parent="1" source="med1" target="medication" edge="1">
          <mxGeometry relative="1" as="geometry" />
        </mxCell>
        <mxCell id="link_med2" style="endArrow=none;html=1;" parent="1" source="med2" target="medication" edge="1">
          <mxGeometry relative="1" as="geometry" />
        </mxCell>
        <mxCell id="link_med3" style="endArrow=none;html=1;" parent="1" source="med3" target="medication" edge="1">
          <mxGeometry relative="1" as="geometry" />
        </mxCell>
        <mxCell id="link_med4" style="endArrow=none;html=1;" parent="1" source="med4" target="medication" edge="1">
          <mxGeometry relative="1" as="geometry" />
        </mxCell>
        <mxCell id="link_po1" style="endArrow=none;html=1;" parent="1" source="po1" target="policy" edge="1">
          <mxGeometry relative="1" as="geometry" />
        </mxCell>
        <mxCell id="link_po2" style="endArrow=none;html=1;" parent="1" source="po2" target="policy" edge="1">
          <mxGeometry relative="1" as="geometry" />
        </mxCell>
        <mxCell id="link_po3" style="endArrow=none;html=1;" parent="1" source="po3" target="policy" edge="1">
          <mxGeometry relative="1" as="geometry" />
        </mxCell>
        <mxCell id="link_po4" style="endArrow=none;html=1;" parent="1" source="po4" target="policy" edge="1">
          <mxGeometry relative="1" as="geometry" />
        </mxCell>
        <mxCell id="link_po5" style="endArrow=none;html=1;" parent="1" source="po5" target="policy" edge="1">
          <mxGeometry relative="1" as="geometry" />
        </mxCell>
        <mxCell id="link_po6" style="endArrow=none;html=1;" parent="1" source="po6" target="policy" edge="1">
          <mxGeometry relative="1" as="geometry" />
        </mxCell>
        <mxCell id="link_ins1" style="endArrow=none;html=1;" parent="1" source="ins1" target="insurance" edge="1">
          <mxGeometry relative="1" as="geometry" />
        </mxCell>
        <mxCell id="link_ins2" style="endArrow=none;html=1;" parent="1" source="ins2" target="insurance" edge="1">
          <mxGeometry relative="1" as="geometry" />
        </mxCell>
        <mxCell id="link_ins3" style="endArrow=none;html=1;" parent="1" source="ins3" target="insurance" edge="1">
          <mxGeometry relative="1" as="geometry" />
        </mxCell>
        <mxCell id="link_au1" style="endArrow=none;html=1;" parent="1" source="au1" target="audit" edge="1">
          <mxGeometry relative="1" as="geometry" />
        </mxCell>
        <mxCell id="link_au2" style="endArrow=none;html=1;" parent="1" source="au2" target="audit" edge="1">
          <mxGeometry relative="1" as="geometry" />
        </mxCell>
        <mxCell id="link_au3" style="endArrow=none;html=1;" parent="1" source="au3" target="audit" edge="1">
          <mxGeometry relative="1" as="geometry" />
        </mxCell>
        <mxCell id="link_au4" style="endArrow=none;html=1;" parent="1" source="au4" target="audit" edge="1">
          <mxGeometry relative="1" as="geometry" />
        </mxCell>
        <mxCell id="link_au5" style="endArrow=none;html=1;" parent="1" source="au5" target="audit" edge="1">
          <mxGeometry relative="1" as="geometry" />
        </mxCell>
        <mxCell id="link_au6" style="endArrow=none;html=1;" parent="1" source="au6" target="audit" edge="1">
          <mxGeometry relative="1" as="geometry" />
        </mxCell>
        <mxCell id="rel_link1" style="endArrow=none;endFill=0;" parent="1" source="patient" target="rel_schedules" edge="1">
          <mxGeometry relative="1" as="geometry" />
        </mxCell>
        <mxCell id="rel_link2" style="endArrow=none;endFill=0;" parent="1" source="rel_schedules" target="appointment" edge="1">
          <mxGeometry relative="1" as="geometry" />
        </mxCell>
        <mxCell id="rel_link3" style="endArrow=none;endFill=0;" parent="1" edge="1">
          <mxGeometry relative="1" as="geometry">
            <mxPoint x="841" y="425" as="sourcePoint" />
            <mxPoint x="951" y="425" as="targetPoint" />
          </mxGeometry>
        </mxCell>
        <mxCell id="rel_link4" style="endArrow=none;endFill=0;" parent="1" source="rel_attends" target="doctor" edge="1">
          <mxGeometry relative="1" as="geometry" />
        </mxCell>
        <mxCell id="rel_link7" style="endArrow=none;endFill=0;" parent="1" source="patient" target="rel_owns" edge="1">
          <mxGeometry relative="1" as="geometry" />
        </mxCell>
        <mxCell id="rel_link8" style="endArrow=none;endFill=0;" parent="1" source="rel_owns" target="medical_record" edge="1">
          <mxGeometry relative="1" as="geometry" />
        </mxCell>
        <mxCell id="rel_link9" style="endArrow=none;endFill=0;" parent="1" source="appointment" target="rel_generates" edge="1">
          <mxGeometry relative="1" as="geometry" />
        </mxCell>
        <mxCell id="rel_link10" style="endArrow=none;endFill=0;" parent="1" source="rel_generates" target="medical_record" edge="1">
          <mxGeometry relative="1" as="geometry" />
        </mxCell>
        <mxCell id="rel_link11" style="endArrow=none;endFill=0;" parent="1" source="medical_record" target="rel_includes" edge="1">
          <mxGeometry relative="1" as="geometry" />
        </mxCell>
        <mxCell id="rel_link12" style="endArrow=none;endFill=0;" parent="1" source="rel_includes" target="diagnosis" edge="1">
          <mxGeometry relative="1" as="geometry" />
        </mxCell>
        <mxCell id="rel_link15" style="endArrow=none;endFill=0;exitX=0;exitY=0.5;exitDx=0;exitDy=0;" parent="1" source="medical_record" target="rel_prescribes" edge="1">
          <mxGeometry relative="1" as="geometry">
            <mxPoint x="190" y="140" as="sourcePoint" />
          </mxGeometry>
        </mxCell>
        <mxCell id="rel_link16" style="endArrow=none;endFill=0;" parent="1" source="rel_prescribes" target="medication" edge="1">
          <mxGeometry relative="1" as="geometry" />
        </mxCell>
        <mxCell id="rel_link17" style="endArrow=none;endFill=0;" parent="1" source="patient" target="rel_has_policy" edge="1">
          <mxGeometry relative="1" as="geometry" />
        </mxCell>
        <mxCell id="rel_link18" style="endArrow=none;endFill=0;" parent="1" source="rel_has_policy" target="policy" edge="1">
          <mxGeometry relative="1" as="geometry" />
        </mxCell>
        <mxCell id="rel_link19" style="endArrow=none;endFill=0;" parent="1" source="policy" target="rel_issues" edge="1">
          <mxGeometry relative="1" as="geometry" />
        </mxCell>
        <mxCell id="rel_link20" style="endArrow=none;endFill=0;" parent="1" source="rel_issues" target="insurance" edge="1">
          <mxGeometry relative="1" as="geometry" />
        </mxCell>
        <mxCell id="card8" value="1:N" style="text;html=1;align=center;verticalAlign=middle;fontSize=12;fontStyle=1" parent="1" vertex="1">
          <mxGeometry x="760" y="80" width="20" height="20" as="geometry" />
        </mxCell>
        <mxCell id="ce4WBo3d2V8kuTHK4Dnx-13" value="1:N" style="text;html=1;align=center;verticalAlign=middle;fontSize=12;fontStyle=1" parent="1" vertex="1">
          <mxGeometry x="-50" y="80" width="20" height="20" as="geometry" />
        </mxCell>
        <mxCell id="ce4WBo3d2V8kuTHK4Dnx-19" value="1:N" style="text;html=1;align=center;verticalAlign=middle;fontSize=12;fontStyle=1" parent="1" vertex="1">
          <mxGeometry x="195" y="255" width="20" height="20" as="geometry" />
        </mxCell>
        <mxCell id="ce4WBo3d2V8kuTHK4Dnx-21" value="1:N" style="text;html=1;align=center;verticalAlign=middle;fontSize=12;fontStyle=1" parent="1" vertex="1">
          <mxGeometry x="195" y="575" width="20" height="20" as="geometry" />
        </mxCell>
        <mxCell id="ce4WBo3d2V8kuTHK4Dnx-24" value="1:N" style="text;html=1;align=center;verticalAlign=middle;fontSize=12;fontStyle=1" parent="1" vertex="1">
          <mxGeometry x="195" y="865" width="20" height="20" as="geometry" />
        </mxCell>
        <mxCell id="ce4WBo3d2V8kuTHK4Dnx-25" value="1:N" style="text;html=1;align=center;verticalAlign=middle;fontSize=12;fontStyle=1" parent="1" vertex="1">
          <mxGeometry x="495" y="370" width="20" height="20" as="geometry" />
        </mxCell>
        <mxCell id="ce4WBo3d2V8kuTHK4Dnx-27" value="1:N" style="text;html=1;align=center;verticalAlign=middle;fontSize=12;fontStyle=1" parent="1" vertex="1">
          <mxGeometry x="995" y="370" width="20" height="20" as="geometry" />
        </mxCell>
        <mxCell id="ce4WBo3d2V8kuTHK4Dnx-31" value="registration_date" style="ellipse;whiteSpace=wrap;html=1;" parent="1" vertex="1">
          <mxGeometry x="440" y="470" width="100" height="50" as="geometry" />
        </mxCell>
        <mxCell id="ce4WBo3d2V8kuTHK4Dnx-32" style="rounded=0;orthogonalLoop=1;jettySize=auto;html=1;exitX=0;exitY=0;exitDx=0;exitDy=0;entryX=1;entryY=0.75;entryDx=0;entryDy=0;endArrow=none;endFill=0;" parent="1" source="ce4WBo3d2V8kuTHK4Dnx-31" target="patient" edge="1">
          <mxGeometry relative="1" as="geometry" />
        </mxCell>
        <mxCell id="ce4WBo3d2V8kuTHK4Dnx-34" style="rounded=0;orthogonalLoop=1;jettySize=auto;html=1;exitX=0;exitY=0.5;exitDx=0;exitDy=0;entryX=1;entryY=0.5;entryDx=0;entryDy=0;endArrow=none;endFill=0;" parent="1" source="ce4WBo3d2V8kuTHK4Dnx-33" target="doctor" edge="1">
          <mxGeometry relative="1" as="geometry" />
        </mxCell>
        <mxCell id="ce4WBo3d2V8kuTHK4Dnx-33" value="active" style="ellipse;whiteSpace=wrap;html=1;" parent="1" vertex="1">
          <mxGeometry x="1395" y="400" width="100" height="50" as="geometry" />
        </mxCell>
        <mxCell id="ce4WBo3d2V8kuTHK4Dnx-35" value="created_by" style="ellipse;whiteSpace=wrap;html=1;" parent="1" vertex="1">
          <mxGeometry x="610" y="440" width="80" height="50" as="geometry" />
        </mxCell>
        <mxCell id="ce4WBo3d2V8kuTHK4Dnx-38" style="rounded=0;orthogonalLoop=1;jettySize=auto;html=1;exitX=0.5;exitY=0;exitDx=0;exitDy=0;entryX=0.25;entryY=1;entryDx=0;entryDy=0;endArrow=none;endFill=0;" parent="1" source="ce4WBo3d2V8kuTHK4Dnx-36" target="appointment" edge="1">
          <mxGeometry relative="1" as="geometry" />
        </mxCell>
        <mxCell id="ce4WBo3d2V8kuTHK4Dnx-36" value="creation_date" style="ellipse;whiteSpace=wrap;html=1;" parent="1" vertex="1">
          <mxGeometry x="670" y="480" width="80" height="50" as="geometry" />
        </mxCell>
        <mxCell id="ce4WBo3d2V8kuTHK4Dnx-37" style="rounded=0;orthogonalLoop=1;jettySize=auto;html=1;exitX=1;exitY=0;exitDx=0;exitDy=0;entryX=0;entryY=0.75;entryDx=0;entryDy=0;endArrow=none;endFill=0;" parent="1" source="ce4WBo3d2V8kuTHK4Dnx-35" target="appointment" edge="1">
          <mxGeometry relative="1" as="geometry" />
        </mxCell>
        <mxCell id="ce4WBo3d2V8kuTHK4Dnx-41" style="rounded=0;orthogonalLoop=1;jettySize=auto;html=1;exitX=1;exitY=0.5;exitDx=0;exitDy=0;endArrow=none;endFill=0;" parent="1" source="ce4WBo3d2V8kuTHK4Dnx-40" target="medication" edge="1">
          <mxGeometry relative="1" as="geometry" />
        </mxCell>
        <mxCell id="ce4WBo3d2V8kuTHK4Dnx-40" value="presentation" style="ellipse;whiteSpace=wrap;html=1;" parent="1" vertex="1">
          <mxGeometry x="-540" y="110" width="140" height="50" as="geometry" />
        </mxCell>
        <mxCell id="ce4WBo3d2V8kuTHK4Dnx-42" value="email" style="ellipse;shape=doubleEllipse;margin=3;whiteSpace=wrap;html=1;align=center;" parent="1" vertex="1">
          <mxGeometry x="160" y="510" width="100" height="40" as="geometry" />
        </mxCell>
        <mxCell id="ce4WBo3d2V8kuTHK4Dnx-51" style="rounded=0;orthogonalLoop=1;jettySize=auto;html=1;exitX=0.5;exitY=0;exitDx=0;exitDy=0;entryX=0.25;entryY=1;entryDx=0;entryDy=0;endArrow=none;endFill=0;" parent="1" source="ce4WBo3d2V8kuTHK4Dnx-44" target="audit" edge="1">
          <mxGeometry relative="1" as="geometry" />
        </mxCell>
        <mxCell id="ce4WBo3d2V8kuTHK4Dnx-44" value="role" style="ellipse;whiteSpace=wrap;html=1;align=center;" parent="1" vertex="1">
          <mxGeometry x="1160" y="885" width="100" height="40" as="geometry" />
        </mxCell>
        <mxCell id="ce4WBo3d2V8kuTHK4Dnx-50" style="rounded=0;orthogonalLoop=1;jettySize=auto;html=1;exitX=0.5;exitY=1;exitDx=0;exitDy=0;endArrow=none;endFill=0;" parent="1" source="ce4WBo3d2V8kuTHK4Dnx-45" target="audit" edge="1">
          <mxGeometry relative="1" as="geometry" />
        </mxCell>
        <mxCell id="ce4WBo3d2V8kuTHK4Dnx-45" value="detail" style="ellipse;whiteSpace=wrap;html=1;align=center;" parent="1" vertex="1">
          <mxGeometry x="1250" y="690" width="100" height="40" as="geometry" />
        </mxCell>
        <mxCell id="ce4WBo3d2V8kuTHK4Dnx-47" style="edgeStyle=orthogonalEdgeStyle;rounded=0;orthogonalLoop=1;jettySize=auto;html=1;exitX=0.5;exitY=1;exitDx=0;exitDy=0;" parent="1" edge="1">
          <mxGeometry relative="1" as="geometry">
            <mxPoint x="1360" y="725" as="sourcePoint" />
            <mxPoint x="1360" y="725" as="targetPoint" />
          </mxGeometry>
        </mxCell>
        <mxCell id="ce4WBo3d2V8kuTHK4Dnx-52" style="rounded=0;orthogonalLoop=1;jettySize=auto;html=1;exitX=0.5;exitY=0;exitDx=0;exitDy=0;entryX=0.5;entryY=1;entryDx=0;entryDy=0;endArrow=none;endFill=0;" parent="1" source="ce4WBo3d2V8kuTHK4Dnx-48" target="audit" edge="1">
          <mxGeometry relative="1" as="geometry" />
        </mxCell>
        <mxCell id="ce4WBo3d2V8kuTHK4Dnx-48" value="ip" style="ellipse;whiteSpace=wrap;html=1;align=center;" parent="1" vertex="1">
          <mxGeometry x="1250" y="845" width="100" height="40" as="geometry" />
        </mxCell>
        <mxCell id="ce4WBo3d2V8kuTHK4Dnx-54" style="rounded=0;orthogonalLoop=1;jettySize=auto;html=1;exitX=0.5;exitY=0;exitDx=0;exitDy=0;entryX=0.75;entryY=1;entryDx=0;entryDy=0;endArrow=none;endFill=0;" parent="1" source="ce4WBo3d2V8kuTHK4Dnx-49" target="audit" edge="1">
          <mxGeometry relative="1" as="geometry" />
        </mxCell>
        <mxCell id="ce4WBo3d2V8kuTHK4Dnx-49" value="application" style="ellipse;whiteSpace=wrap;html=1;align=center;" parent="1" vertex="1">
          <mxGeometry x="1340" y="885" width="100" height="40" as="geometry" />
        </mxCell>
        <mxCell id="ce4WBo3d2V8kuTHK4Dnx-56" value="procedures" style="rounded=0;whiteSpace=wrap;html=1;fontStyle=1;fontSize=14;" parent="1" vertex="1">
          <mxGeometry x="-190" y="310" width="140" height="50" as="geometry" />
        </mxCell>
        <mxCell id="ce4WBo3d2V8kuTHK4Dnx-57" value="procedure_id" style="ellipse;whiteSpace=wrap;html=1;align=center;fontStyle=4;" parent="1" vertex="1">
          <mxGeometry x="-180" y="250" width="100" height="40" as="geometry" />
        </mxCell>
        <mxCell id="ce4WBo3d2V8kuTHK4Dnx-67" style="edgeStyle=orthogonalEdgeStyle;rounded=0;orthogonalLoop=1;jettySize=auto;html=1;exitX=0.5;exitY=0;exitDx=0;exitDy=0;entryX=0.398;entryY=1.007;entryDx=0;entryDy=0;endArrow=none;endFill=0;entryPerimeter=0;" parent="1" source="ce4WBo3d2V8kuTHK4Dnx-59" target="ce4WBo3d2V8kuTHK4Dnx-56" edge="1">
          <mxGeometry relative="1" as="geometry" />
        </mxCell>
        <mxCell id="ce4WBo3d2V8kuTHK4Dnx-59" value="reference_price" style="ellipse;whiteSpace=wrap;html=1;align=center;" parent="1" vertex="1">
          <mxGeometry x="-180" y="390" width="100" height="40" as="geometry" />
        </mxCell>
        <mxCell id="ce4WBo3d2V8kuTHK4Dnx-68" style="rounded=0;orthogonalLoop=1;jettySize=auto;html=1;exitX=1;exitY=0;exitDx=0;exitDy=0;entryX=0;entryY=0.75;entryDx=0;entryDy=0;endArrow=none;endFill=0;" parent="1" source="ce4WBo3d2V8kuTHK4Dnx-60" target="ce4WBo3d2V8kuTHK4Dnx-56" edge="1">
          <mxGeometry relative="1" as="geometry" />
        </mxCell>
        <mxCell id="ce4WBo3d2V8kuTHK4Dnx-60" value="description" style="ellipse;whiteSpace=wrap;html=1;align=center;" parent="1" vertex="1">
          <mxGeometry x="-300" y="350" width="100" height="40" as="geometry" />
        </mxCell>
        <mxCell id="ce4WBo3d2V8kuTHK4Dnx-69" style="rounded=0;orthogonalLoop=1;jettySize=auto;html=1;exitX=1;exitY=0.5;exitDx=0;exitDy=0;endArrow=none;endFill=0;entryX=0;entryY=0.25;entryDx=0;entryDy=0;" parent="1" source="ce4WBo3d2V8kuTHK4Dnx-61" target="ce4WBo3d2V8kuTHK4Dnx-56" edge="1">
          <mxGeometry relative="1" as="geometry">
            <mxPoint x="-190" y="335" as="targetPoint" />
          </mxGeometry>
        </mxCell>
        <mxCell id="ce4WBo3d2V8kuTHK4Dnx-61" value="code" style="ellipse;whiteSpace=wrap;html=1;align=center;" parent="1" vertex="1">
          <mxGeometry x="-310" y="290" width="100" height="40" as="geometry" />
        </mxCell>
        <mxCell id="ce4WBo3d2V8kuTHK4Dnx-63" style="edgeStyle=orthogonalEdgeStyle;rounded=0;orthogonalLoop=1;jettySize=auto;html=1;exitX=1;exitY=0.5;exitDx=0;exitDy=0;entryX=0.25;entryY=1;entryDx=0;entryDy=0;endArrow=none;endFill=0;" parent="1" source="ce4WBo3d2V8kuTHK4Dnx-62" target="medical_record" edge="1">
          <mxGeometry relative="1" as="geometry" />
        </mxCell>
        <mxCell id="ce4WBo3d2V8kuTHK4Dnx-64" style="edgeStyle=orthogonalEdgeStyle;rounded=0;orthogonalLoop=1;jettySize=auto;html=1;exitX=0;exitY=0.5;exitDx=0;exitDy=0;entryX=1;entryY=0.5;entryDx=0;entryDy=0;endArrow=none;endFill=0;" parent="1" source="ce4WBo3d2V8kuTHK4Dnx-62" target="ce4WBo3d2V8kuTHK4Dnx-56" edge="1">
          <mxGeometry relative="1" as="geometry" />
        </mxCell>
        <mxCell id="ce4WBo3d2V8kuTHK4Dnx-62" value="registers" style="shape=rhombus;perimeter=rhombusPerimeter;whiteSpace=wrap;html=1;align=center;" parent="1" vertex="1">
          <mxGeometry x="15" y="170" width="120" height="60" as="geometry" />
        </mxCell>
        <mxCell id="ce4WBo3d2V8kuTHK4Dnx-70" style="edgeStyle=orthogonalEdgeStyle;rounded=0;orthogonalLoop=1;jettySize=auto;html=1;exitX=0.5;exitY=1;exitDx=0;exitDy=0;entryX=0.431;entryY=0;entryDx=0;entryDy=0;entryPerimeter=0;endArrow=none;endFill=0;" parent="1" source="ce4WBo3d2V8kuTHK4Dnx-57" target="ce4WBo3d2V8kuTHK4Dnx-56" edge="1">
          <mxGeometry relative="1" as="geometry" />
        </mxCell>
        <mxCell id="ce4WBo3d2V8kuTHK4Dnx-71" value="N:M" style="text;html=1;align=center;verticalAlign=middle;fontSize=12;fontStyle=1" parent="1" vertex="1">
          <mxGeometry x="65" y="230" width="20" height="20" as="geometry" />
        </mxCell>
        <mxCell id="DnBKxRfWcPGGrBU_8ffd-2" value="documents" style="ellipse;shape=doubleEllipse;margin=3;whiteSpace=wrap;html=1;align=center;" parent="1" vertex="1">
          <mxGeometry x="85" y="550" width="100" height="40" as="geometry" />
        </mxCell>
        <mxCell id="DnBKxRfWcPGGrBU_8ffd-6" style="edgeStyle=none;curved=1;rounded=0;orthogonalLoop=1;jettySize=auto;html=1;exitX=1;exitY=0.5;exitDx=0;exitDy=0;entryX=0;entryY=0.5;entryDx=0;entryDy=0;fontSize=12;startSize=8;endSize=8;endArrow=none;endFill=0;" parent="1" source="DnBKxRfWcPGGrBU_8ffd-3" target="patient" edge="1">
          <mxGeometry relative="1" as="geometry" />
        </mxCell>
        <mxCell id="DnBKxRfWcPGGrBU_8ffd-3" value="emergency_contacts" style="ellipse;shape=doubleEllipse;margin=3;whiteSpace=wrap;html=1;align=center;" parent="1" vertex="1">
          <mxGeometry x="-20" y="410" width="130" height="50" as="geometry" />
        </mxCell>
        <mxCell id="DnBKxRfWcPGGrBU_8ffd-7" style="edgeStyle=none;curved=1;rounded=0;orthogonalLoop=1;jettySize=auto;html=1;exitX=1;exitY=0.5;exitDx=0;exitDy=0;entryX=0;entryY=0.75;entryDx=0;entryDy=0;fontSize=12;startSize=8;endSize=8;endArrow=none;endFill=0;" parent="1" source="DnBKxRfWcPGGrBU_8ffd-4" target="patient" edge="1">
          <mxGeometry relative="1" as="geometry" />
        </mxCell>
        <mxCell id="DnBKxRfWcPGGrBU_8ffd-4" value="phones" style="ellipse;shape=doubleEllipse;margin=3;whiteSpace=wrap;html=1;align=center;" parent="1" vertex="1">
          <mxGeometry x="-5" y="470" width="100" height="40" as="geometry" />
        </mxCell>
        <mxCell id="DnBKxRfWcPGGrBU_8ffd-9" style="edgeStyle=none;curved=1;rounded=0;orthogonalLoop=1;jettySize=auto;html=1;exitX=1;exitY=0;exitDx=0;exitDy=0;entryX=0;entryY=1;entryDx=0;entryDy=0;fontSize=12;startSize=8;endSize=8;endArrow=none;endFill=0;" parent="1" source="DnBKxRfWcPGGrBU_8ffd-5" target="patient" edge="1">
          <mxGeometry relative="1" as="geometry" />
        </mxCell>
        <mxCell id="DnBKxRfWcPGGrBU_8ffd-5" value="adresses" style="ellipse;shape=doubleEllipse;margin=3;whiteSpace=wrap;html=1;align=center;" parent="1" vertex="1">
          <mxGeometry y="520" width="100" height="40" as="geometry" />
        </mxCell>
        <mxCell id="DnBKxRfWcPGGrBU_8ffd-8" style="edgeStyle=none;curved=1;rounded=0;orthogonalLoop=1;jettySize=auto;html=1;exitX=0.5;exitY=0;exitDx=0;exitDy=0;entryX=0.134;entryY=1.009;entryDx=0;entryDy=0;entryPerimeter=0;fontSize=12;startSize=8;endSize=8;endArrow=none;endFill=0;" parent="1" source="DnBKxRfWcPGGrBU_8ffd-2" target="patient" edge="1">
          <mxGeometry relative="1" as="geometry" />
        </mxCell>
        <mxCell id="54p_AtD5XPCz2T6abqTl-1" value="N:M" style="text;html=1;align=center;verticalAlign=middle;fontSize=12;fontStyle=1" parent="1" vertex="1">
          <mxGeometry x="280" y="-60" width="20" height="20" as="geometry" />
        </mxCell>
      </root>
    </mxGraphModel>
  </diagram>
</mxfile>
